<svg width="1568" height="784" viewBox="0 0 1568 784" fill="none" xmlns="http://www.w3.org/2000/svg">
<path fill-rule="evenodd" clip-rule="evenodd" d="M453.999 0H380.377V73.4867H453.999V0ZM233.135 75.9362H159.513V149.423H233.135V75.9362ZM306.756 149.423H380.378V222.91H306.756V149.423ZM453.999 275.575H527.621V349.062L527.62 552.375H454V623H147V552.375H73.6214H0V478.888L73.6214 478.888V405.402H147.243L147.243 459V349.062H233.135V275.575H306.756H380.378V349.062H453.999V275.575ZM147.243 276.8H73.6214V350.287H147.243V276.8Z" fill="#F7F7FF"/>
<path fill-rule="evenodd" clip-rule="evenodd" d="M822.487 28.2873H748.865V101.774H822.487V28.2873ZM601.622 101.774H675.244V175.261H601.622V101.774ZM454.379 227.926H528.001V301.413H601.622V227.926H675.244H748.865V301.413L834.757 301.413V504.726H454.379L454.379 301.413V227.926ZM834.757 504.726H908.378V431.239V357.753H834.757V431.239V504.726ZM908.378 229.151H834.757V302.638H908.378V229.151ZM908.379 431.239H982V504.726H908.379V431.239Z" fill="#F7F7FF"/>
<path fill-rule="evenodd" clip-rule="evenodd" d="M1114 0H1187.62V73.4867H1114V0ZM1334.87 75.9362H1408.49V149.423H1334.87V75.9362ZM1261.24 149.423H1187.62V222.91H1261.24V149.423ZM1114 275.575H1040.38V349.062V552.375H1420.76V349.062H1334.87V275.575H1261.24H1187.62V349.062H1114V275.575ZM1420.76 552.375V478.888H1494.38H1568V552.375H1494.38H1420.76ZM1494.38 405.402H1420.76V478.888H1494.38V405.402ZM1420.76 276.8H1494.38V350.287H1420.76V276.8Z" fill="#F7F7FF"/>
<path fill-rule="evenodd" clip-rule="evenodd" d="M745.513 28.2873H819.135V101.774H745.513V28.2873ZM966.378 101.774H892.756V175.261H966.378V101.774ZM1113.62 227.926H1040V301.413H966.378V227.926H892.756H819.135V301.413L733.243 301.413V504.726H733.498V552.375H811V622.537H1191.12V439H1113.62L1113.62 301.413V227.926ZM815 710H888.621V783.487H815V710ZM384.621 666H311V739.487H384.621V666ZM733.243 504.726H659.622V431.239V357.753H733.243V431.239V504.726ZM659.622 229.151H733.243V302.638H659.622V229.151ZM659.621 431.239H586V504.726H659.621V431.239Z" fill="#F7F7FF"/>
</svg>
