<svg width="556" height="313" viewBox="0 0 556 313" fill="none" xmlns="http://www.w3.org/2000/svg">
<path fill-rule="evenodd" clip-rule="evenodd" d="M256.785 0H215.144V41.6408H256.785V0ZM131.863 43.0288H90.2217V84.6696H131.863V43.0288ZM173.503 84.6696H215.144V126.31H173.503V84.6696ZM256.785 156.153H298.426V197.794V313H83.2816H41.6408H0V271.359H41.6408V229.718H83.2816V198.488H41.6408V156.847H83.2816V197.794H131.863V156.153H173.503H215.144V197.794H256.785V156.153Z" fill="#F7F7FF"/>
<path fill-rule="evenodd" clip-rule="evenodd" d="M465.204 16.0288H423.563V57.6696H465.204V16.0288ZM340.282 57.6696H381.922V99.3104H340.282V57.6696ZM257 129.153H298.641V170.794H340.282V129.153H381.922H423.563V170.794L472.144 170.794V286H472V313H257V209L257 170.794V129.153ZM472.144 286H513.785H555.426V244.359H513.785V202.718H472.144V244.359V286ZM513.785 129.847H472.144V171.488H513.785V129.847Z" fill="#F7F7FF"/>
</svg>
